<svg width="20" height="23" viewBox="0 0 20 23" fill="none" xmlns="http://www.w3.org/2000/svg">
<path d="M8 10.5V14C8 14.5625 7.53125 15 7 15H6.5C5.375 15 4.5 14.125 4.5 13V11.5C4.5 10.4062 5.375 9.5 6.5 9.5H7C7.53125 9.5 8 9.96875 8 10.5ZM13.5 15H13C12.4375 15 12 14.5625 12 14V10.5C12 9.96875 12.4375 9.5 13 9.5H13.5C14.5938 9.5 15.5 10.4062 15.5 11.5V13C15.5 14.125 14.5938 15 13.5 15ZM10 4C14.4375 4 17.8438 7.71875 18 12V17.1875C18 18.75 16.7188 20 15.1562 20H9.5C8.65625 20 8 19.3438 8 18.5C8 17.6875 8.65625 17 9.5 17H10.5C11.3125 17 12 17.6875 12 18.5H15.1562C15.9062 18.5 16.5 17.9375 16.5 17.1875C16.5 17.1875 16.4688 12.0938 16.4688 12H16.5C16.5 8.4375 13.5625 5.5 10 5.5C6.40625 5.5 3.5 8.4375 3.5 12V12.5C3.5 12.7812 3.25 13 3 13H2.5C2.21875 13 2 12.7812 2 12.5V12C2.125 7.71875 5.53125 4 10 4Z" fill="#1351B4"/>
</svg>
